<?xml version="1.0" encoding="UTF-8"?>
<svg xmlns="http://www.w3.org/2000/svg" xmlns:xlink="http://www.w3.org/1999/xlink" version="1.1" id="Ebene_1" x="0px" y="0px" viewBox="0 0 299.784 38.091" xml:space="preserve">
<path fill="#5C5957" d="M85.773,0.375l9.342,20.559h-2.344l-2.718-5.937H79.837l-2.687,5.937h-2.344l9.31-20.559H85.773z   M80.586,13.31h8.717l-2.561-5.625c-0.532-1.155-1.625-4.343-1.719-4.562h-0.125c-0.094,0.219-1.187,3.375-1.718,4.562L80.586,13.31  z"></path>
<polygon fill="#5C5957" points="100.555,0.375 100.555,18.934 112.708,18.934 112.708,20.934 98.337,20.934 98.337,0.375 "></polygon>
<path fill="#5C5957" d="M123.115,0.375c5.78,0,8.374,2.843,8.374,6.655c0,4.249-2.656,6.686-7.999,6.686h-4.718v7.218h-2.219V0.375  H123.115z M123.459,11.81c3.999,0,5.749-1.688,5.749-4.78c0-2.406-1.218-4.655-6.093-4.655h-4.343v9.435H123.459z"></path>
<polygon fill="#5C5957" points="137.396,11.247 137.396,18.932 150.332,18.932 150.332,20.933 135.178,20.933 135.178,0.375   149.705,0.375 149.705,2.374 137.396,2.374 137.396,9.372 148.457,9.372 148.457,11.247 "></polygon>
<path fill="#5C5957" d="M169.892,0.375h2.218v20.559h-2l-13.778-17.06h-0.063c0,0,0.218,3.281,0.218,5.031v12.029h-2.218V0.375  h2.031l13.748,17.06h0.062c0,0-0.218-3.781-0.218-4.969V0.375z"></path>
<polygon fill="#5C5957" points="192.298,2.374 183.768,2.374 183.768,0.374 203.047,0.374 203.047,2.374 194.516,2.374   194.516,20.934 192.298,20.934 "></polygon>
<polygon fill="#5C5957" points="208.485,11.247 208.485,18.932 221.421,18.932 221.421,20.933 206.267,20.933 206.267,0.375   220.795,0.375 220.795,2.374 208.485,2.374 208.485,9.372 219.546,9.372 219.546,11.247 "></polygon>
<path fill="#5C5957" d="M224.984,19.371l0.75-1.906c1.719,0.843,4.156,1.719,6.873,1.719c3.969,0,5.813-2.001,5.813-4.25  c0-1.187-0.533-2.124-1.563-2.687c-0.874-0.499-2.467-0.781-4.405-0.999c-2.125-0.251-3.782-0.564-5.032-1.219  c-1.904-0.969-2.623-2.499-2.623-4.312c0-3.218,3.092-5.717,7.685-5.717c2.813,0,5.062,0.593,6.906,1.499l-0.719,1.875  c-1.531-0.718-3.874-1.376-6.187-1.376c-3.781,0-5.466,1.782-5.466,3.719c0,1.063,0.404,1.937,1.624,2.624  c0.906,0.469,2.343,0.658,4.249,0.907c2.031,0.25,3.937,0.625,4.998,1.188c1.813,0.999,2.751,2.467,2.751,4.498  c0,3.374-2.905,6.25-8.031,6.25C229.389,21.184,227.046,20.496,224.984,19.371"></path>
<rect x="244.952" y="0.375" fill="#5C5957" width="2.218" height="20.559"></rect>
<polygon fill="#5C5957" points="258.918,2.374 250.389,2.374 250.389,0.374 269.667,0.374 269.667,2.374 261.136,2.374   261.136,20.934 258.918,20.934 "></polygon>
<rect x="272.886" y="0.375" fill="#5C5957" width="2.218" height="20.559"></rect>
<path fill="#5C5957" d="M296.852,0.375h2.218v20.559h-2l-13.777-17.06h-0.063c0,0,0.218,3.281,0.218,5.031v12.029h-2.218V0.375  h2.031l13.748,17.06h0.061c0,0-0.218-3.781-0.218-4.969V0.375z"></path>
<polygon fill="#5C5957" points="254.227,30.737 255.243,33.18 257.881,33.392 255.871,35.113 256.485,37.687 254.227,36.308   251.969,37.687 252.583,35.113 250.573,33.392 253.212,33.18 "></polygon>
<polygon fill="#5C5957" points="264.703,30.737 265.718,33.18 268.357,33.392 266.347,35.113 266.961,37.687 264.703,36.308   262.445,37.687 263.059,35.113 261.049,33.392 263.688,33.18 "></polygon>
<polygon fill="#5C5957" points="275.178,30.737 276.193,33.18 278.832,33.392 276.822,35.113 277.436,37.687 275.178,36.308   272.92,37.687 273.534,35.113 271.523,33.392 274.163,33.18 "></polygon>
<polygon fill="#5C5957" points="285.654,30.737 286.67,33.18 289.308,33.392 287.298,35.113 287.911,37.687 285.654,36.308   283.396,37.687 284.009,35.113 282.001,33.392 284.638,33.18 "></polygon>
<polygon fill="#5C5957" points="296.129,30.737 297.145,33.18 299.784,33.392 297.773,35.113 298.387,37.687 296.129,36.308   293.872,37.687 294.485,35.113 292.475,33.392 295.114,33.18 "></polygon>
<path fill="#5C5957" d="M77.066,31.109c1.978,0,2.852,0.957,2.852,2.248c0,1.437-0.896,2.25-2.717,2.25h-1.343v2.352h-1.021v-6.85  H77.066z M77.18,34.752c1.208,0,1.698-0.488,1.698-1.395c0-0.634-0.23-1.331-1.812-1.331h-1.208v2.726H77.18z"></path>
<path fill="#5C5957" d="M84.106,31.109l3.061,6.849h-1.072l-0.823-1.831H82.18l-0.812,1.831h-1.072l3.061-6.849H84.106z   M82.514,35.377h2.424l-0.51-1.145c-0.197-0.449-0.676-1.853-0.676-1.853H83.71c0,0-0.478,1.395-0.677,1.853L82.514,35.377z"></path>
<path fill="#5C5957" d="M93.74,31.109h1.021v6.849h-0.916l-4.269-5.236h-0.021c0,0,0.104,1.177,0.104,1.738v3.498h-1.02v-6.849  h0.916l4.269,5.237h0.021c0,0-0.105-1.198-0.105-1.594V31.109z"></path>
<path fill="#5C5957" d="M103.832,34.492c0,2.061-1.488,3.591-3.645,3.591c-2.049,0-3.643-1.426-3.643-3.591  c0-1.989,1.603-3.508,3.643-3.508C102.229,30.984,103.832,32.503,103.832,34.492 M97.607,34.492c0,1.708,1.124,2.675,2.58,2.675  c1.458,0,2.582-0.967,2.582-2.675c0-1.551-1.114-2.592-2.582-2.592C98.721,31.9,97.607,32.941,97.607,34.492"></path>
<path fill="#5C5957" d="M105.617,31.11h2.332c1.801,0,2.582,0.895,2.582,2.092c0,0.729-0.334,1.479-1.187,1.832v0.042l1.905,2.883  h-1.176l-1.801-2.716h-1.635v2.716h-1.02V31.11z M107.845,34.388c1.156,0,1.644-0.353,1.644-1.186c0-0.698-0.343-1.176-1.53-1.176  h-1.322v2.362H107.845z"></path>
<path fill="#5C5957" d="M115.646,31.109l3.061,6.849h-1.072l-0.823-1.831h-3.092l-0.812,1.831h-1.072l3.061-6.849H115.646z   M114.054,35.377h2.424l-0.51-1.145c-0.198-0.449-0.676-1.853-0.676-1.853h-0.042c0,0-0.479,1.395-0.677,1.853L114.054,35.377z"></path>
<path fill="#5C5957" d="M122.032,34.066c-0.177-0.281-0.916-1.615-0.916-1.615l-0.031,0.012c0,0,0.115,1.457,0.115,1.811v3.685  h-1.021V31.11h1.104l2.478,4.017h0.019l2.478-4.017h1.104v6.849h-1.021v-3.685c0-0.354,0.115-1.811,0.115-1.811l-0.03-0.012  c0,0-0.74,1.334-0.917,1.615l-1.604,2.603h-0.27L122.032,34.066z"></path>
<path fill="#5C5957" d="M132.645,31.109l3.062,6.849h-1.073l-0.822-1.831h-3.093l-0.811,1.831h-1.072l3.06-6.849H132.645z   M131.053,35.377h2.425l-0.511-1.145c-0.197-0.449-0.675-1.853-0.675-1.853h-0.043c0,0-0.478,1.395-0.675,1.853L131.053,35.377z"></path>
<path fill="#5C5957" d="M139.167,31.109h1.073l1.509,4.039c0.083,0.208,0.417,1.437,0.417,1.437h0.041c0,0,0.364-1.229,0.447-1.437  l1.427-3.831h0.687l1.426,3.831c0.084,0.208,0.448,1.437,0.448,1.437h0.041c0,0,0.333-1.229,0.417-1.437l1.51-4.039h1.071  l-2.56,6.849h-0.834l-1.478-3.945c-0.103-0.291-0.353-1.374-0.353-1.374h-0.063c0,0-0.25,1.083-0.354,1.374l-1.478,3.945h-0.833  L139.167,31.109z"></path>
<polygon fill="#5C5957" points="152.177,34.867 152.177,37.041 156.31,37.041 156.31,37.958 151.156,37.958 151.156,31.108   156.102,31.108 156.102,32.025 152.177,32.025 152.177,34.013 155.685,34.013 155.685,34.867 "></polygon>
<polygon fill="#5C5957" points="159.009,31.109 159.009,37.043 162.882,37.043 162.882,37.958 157.988,37.958 157.988,31.109 "></polygon>
<polygon fill="#5C5957" points="165.373,31.109 165.373,37.043 169.245,37.043 169.245,37.958 164.352,37.958 164.352,31.109 "></polygon>
<path fill="#5C5957" d="M175.818,31.109h1.02v6.849h-0.916l-4.268-5.236h-0.021c0,0,0.104,1.177,0.104,1.738v3.498h-1.021v-6.849  h0.917l4.27,5.237h0.019c0,0-0.104-1.198-0.104-1.594V31.109z"></path>
<polygon fill="#5C5957" points="179.8,34.867 179.8,37.041 183.933,37.041 183.933,37.958 178.779,37.958 178.779,31.108   183.725,31.108 183.725,32.025 179.8,32.025 179.8,34.013 183.308,34.013 183.308,34.867 "></polygon>
<path fill="#5C5957" d="M185.29,37.48l0.343-0.874c0.542,0.26,1.406,0.561,2.26,0.561c1.186,0,1.748-0.54,1.748-1.227  c0-0.312-0.156-0.573-0.417-0.729c-0.27-0.167-0.769-0.26-1.404-0.334c-0.73-0.083-1.26-0.196-1.688-0.426  c-0.645-0.344-0.884-0.896-0.884-1.49c0-1.113,1.061-1.977,2.612-1.977c0.969,0,1.729,0.198,2.364,0.499l-0.332,0.855  c-0.49-0.208-1.324-0.438-2.032-0.438c-1.196,0-1.592,0.552-1.592,1.061c0,0.261,0.104,0.511,0.438,0.709  c0.27,0.156,0.686,0.208,1.322,0.291c0.666,0.094,1.301,0.219,1.676,0.428c0.624,0.343,0.916,0.853,0.916,1.551  c0,1.207-1.021,2.144-2.717,2.144C186.799,38.084,185.998,37.866,185.29,37.48"></path>
<path fill="#5C5957" d="M191.872,37.48l0.343-0.874c0.542,0.26,1.405,0.561,2.259,0.561c1.188,0,1.75-0.54,1.75-1.227  c0-0.312-0.158-0.573-0.417-0.729c-0.271-0.167-0.771-0.26-1.406-0.334c-0.728-0.083-1.259-0.196-1.687-0.426  c-0.645-0.344-0.885-0.896-0.885-1.49c0-1.113,1.064-1.977,2.615-1.977c0.968,0,1.727,0.198,2.361,0.499l-0.331,0.855  c-0.49-0.208-1.322-0.438-2.03-0.438c-1.198,0-1.593,0.552-1.593,1.061c0,0.261,0.103,0.511,0.437,0.709  c0.27,0.156,0.687,0.208,1.322,0.291c0.666,0.094,1.3,0.219,1.675,0.428c0.625,0.343,0.917,0.853,0.917,1.551  c0,1.207-1.02,2.144-2.717,2.144C193.381,38.084,192.58,37.866,191.872,37.48"></path>
<path fill="#5C5957" d="M201.861,31.11h2.333c1.8,0,2.581,0.895,2.581,2.092c0,0.729-0.333,1.479-1.186,1.832v0.042l1.904,2.883  h-1.177l-1.8-2.716h-1.634v2.716h-1.021V31.11z M204.089,34.388c1.155,0,1.645-0.353,1.645-1.186c0-0.698-0.344-1.176-1.53-1.176  h-1.322v2.362H204.089z"></path>
<polygon fill="#5C5957" points="209.777,34.867 209.777,37.041 213.91,37.041 213.91,37.958 208.756,37.958 208.756,31.108   213.701,31.108 213.701,32.025 209.777,32.025 209.777,34.013 213.284,34.013 213.284,34.867 "></polygon>
<path fill="#5C5957" d="M215.266,37.48l0.344-0.874c0.542,0.26,1.404,0.561,2.259,0.561c1.187,0,1.749-0.54,1.749-1.227  c0-0.312-0.156-0.573-0.417-0.729c-0.271-0.167-0.77-0.26-1.405-0.334c-0.729-0.083-1.259-0.196-1.687-0.426  c-0.646-0.344-0.885-0.896-0.885-1.49c0-1.113,1.062-1.977,2.613-1.977c0.968,0,1.728,0.198,2.363,0.499l-0.331,0.855  c-0.49-0.208-1.324-0.438-2.032-0.438c-1.197,0-1.592,0.552-1.592,1.061c0,0.261,0.104,0.511,0.438,0.709  c0.27,0.156,0.686,0.208,1.322,0.291c0.666,0.094,1.3,0.219,1.676,0.428c0.624,0.343,0.915,0.853,0.915,1.551  c0,1.207-1.02,2.144-2.716,2.144C216.776,38.084,215.975,37.866,215.266,37.48"></path>
<path fill="#5C5957" d="M229.095,34.492c0,2.061-1.488,3.591-3.644,3.591c-2.05,0-3.643-1.426-3.643-3.591  c0-1.989,1.604-3.508,3.643-3.508C227.492,30.984,229.095,32.503,229.095,34.492 M222.87,34.492c0,1.708,1.125,2.675,2.581,2.675  c1.458,0,2.583-0.967,2.583-2.675c0-1.551-1.114-2.592-2.583-2.592C223.984,31.9,222.87,32.941,222.87,34.492"></path>
<path fill="#5C5957" d="M230.88,31.11h2.333c1.801,0,2.582,0.895,2.582,2.092c0,0.729-0.334,1.479-1.187,1.832v0.042l1.905,2.883  h-1.177l-1.801-2.716H231.9v2.716h-1.021V31.11z M233.109,34.388c1.154,0,1.644-0.353,1.644-1.186c0-0.698-0.343-1.176-1.53-1.176  H231.9v2.362H233.109z"></path>
<polygon fill="#5C5957" points="239.608,32.025 236.891,32.025 236.891,31.108 243.345,31.108 243.345,32.025 240.629,32.025   240.629,37.959 239.608,37.959 "></polygon>
<polygon fill="#B6CD29" points="44.196,4.045 28.549,4.045 28.549,0.376 63.914,0.376 63.914,4.045 48.265,4.045 48.265,38.091   44.196,38.091 "></polygon>
<path fill="#858381" d="M17.078,0.375h3.04L37.255,38.09h-4.3L21.77,13.509c-1.061-2.584-2.059-5.307-3.029-8.091h-0.228  c-0.971,2.722-1.97,5.426-3.029,8.088L4.299,38.09H0L17.078,0.375z"></path>
</svg>
